<?xml version="1.0" standalone="no"?>
<!DOCTYPE svg PUBLIC "-//W3C//DTD SVG 20010904//EN"
 "http://www.w3.org/TR/2001/REC-SVG-20010904/DTD/svg10.dtd">
<svg version="1.0" xmlns="http://www.w3.org/2000/svg"
 width="256.000000pt" height="256.000000pt" viewBox="0 0 256.000000 256.000000"
 preserveAspectRatio="xMidYMid meet">
<metadata>
Created by potrace 1.11, written by Peter Selinger 2001-2013
</metadata>
<g transform="translate(0.000000,256.000000) scale(0.100000,-0.100000)"
fill="#000000" stroke="none">
<path d="M1115 2419 c-126 -33 -223 -88 -315 -179 -42 -43 -130 -159 -130
-173 0 -3 -8 -22 -17 -43 -9 -22 -18 -42 -19 -46 -1 -5 -3 -11 -4 -15 -2 -5
-4 -12 -5 -18 -1 -5 -5 -21 -9 -35 -13 -49 -16 -98 -16 -302 l0 -208 -69 0
c-45 0 -72 -5 -80 -13 -7 -10 -11 -93 -11 -254 l-1 -241 -51 -21 c-28 -11 -56
-21 -63 -21 -6 0 -19 -8 -28 -18 -13 -15 -17 -39 -17 -114 0 -119 8 -131 78
-104 91 35 82 60 82 -221 0 -180 3 -252 12 -261 19 -19 1641 -17 1657 2 8 9
12 90 12 260 0 135 4 246 8 246 4 0 34 -11 66 -24 55 -22 60 -23 72 -7 17 22
18 205 1 219 -7 6 -43 22 -80 37 l-67 27 0 241 c0 190 -3 243 -14 254 -8 9
-38 14 -80 14 l-67 1 -1 206 c0 114 -2 221 -5 237 -2 17 -5 42 -7 58 -2 15 -7
30 -10 34 -4 3 -7 13 -7 21 0 24 -79 181 -108 215 -111 129 -194 187 -342 237
-90 31 -266 35 -365 9z m298 -73 c150 -33 297 -141 379 -278 73 -123 81 -162
85 -430 l4 -238 -80 0 -80 0 0 193 c0 203 -4 246 -27 315 -8 23 -12 48 -8 54
4 6 3 8 -3 5 -6 -4 -24 16 -42 43 -116 179 -365 239 -567 138 -24 -12 -53 -30
-64 -40 -10 -10 -23 -18 -27 -18 -4 0 -25 -24 -46 -54 -88 -122 -98 -170 -97
-432 l0 -204 -80 0 -81 0 1 208 c1 114 6 231 12 261 41 226 208 407 435 470
67 18 215 22 286 7z m28 -267 c79 -42 124 -89 163 -169 l31 -65 3 -222 4 -222
-362 -1 -362 0 4 222 3 223 32 65 c36 73 50 91 108 137 102 79 261 93 376 32z
m599 -954 c0 -107 -2 -195 -4 -195 -3 0 -113 45 -181 75 -156 68 -565 235
-575 235 -5 0 -177 -70 -381 -155 -204 -85 -372 -155 -375 -155 -2 0 -4 88 -4
195 l0 195 760 0 760 0 0 -195z m-455 -95 c149 -62 315 -131 370 -155 55 -23
131 -55 169 -70 72 -31 79 -38 74 -78 -3 -24 -4 -25 -33 -13 -16 7 -34 14 -40
16 -5 2 -39 16 -75 32 -94 42 -81 36 -385 163 -154 64 -305 126 -336 137 l-57
21 -46 -21 c-25 -12 -48 -22 -51 -22 -3 0 -24 -9 -48 -19 -23 -11 -190 -81
-372 -156 -181 -75 -343 -142 -360 -150 -29 -14 -30 -13 -33 11 -2 14 -1 31 1
38 3 7 47 29 98 50 52 21 112 46 134 56 22 10 119 50 215 90 96 40 189 78 205
85 17 7 59 25 95 40 95 38 133 55 150 64 18 10 -10 20 325 -119z m-210 -74
c33 -13 105 -43 160 -66 55 -23 150 -62 210 -87 61 -24 124 -51 140 -58 17 -8
57 -25 90 -38 l60 -25 3 -241 2 -241 -279 0 -280 1 -1 226 c0 148 -4 231 -12
240 -14 17 -349 19 -376 2 -15 -10 -17 -31 -15 -240 l3 -229 -280 0 -280 0 2
241 3 241 120 50 c157 65 253 105 405 169 213 88 234 96 250 88 8 -5 42 -19
75 -33z m25 -556 l0 -200 -120 0 -120 0 0 199 0 199 119 1 120 2 1 -201z"/>
<path d="M772 668 c-16 -16 -16 -200 0 -216 16 -16 200 -16 216 0 16 16 16
200 0 216 -16 16 -200 16 -216 0z m146 -108 c-1 -39 -2 -40 -40 -40 -38 0 -38
0 -38 40 0 40 0 40 40 40 l40 0 -2 -40z"/>
<path d="M1572 668 c-8 -8 -12 -47 -12 -108 0 -61 4 -100 12 -108 16 -16 200
-16 216 0 16 16 16 200 0 216 -16 16 -200 16 -216 0z m146 -108 l2 -40 -40 0
c-40 0 -40 0 -40 40 0 40 0 40 38 40 38 0 39 -1 40 -40z"/>
</g>
</svg>
